<svg xmlns="http://www.w3.org/2000/svg" viewBox="0 0 244.1 58.1"><defs><style>.cls-1{fill:#4c1b7f;}</style></defs><g id="Layer_2" data-name="Layer 2"><g id="Layer_2-2" data-name="Layer 2"><path class="cls-1" d="M29.5,12.4c0,8-4.8,11.1-16.7,11.1H9.1V35.2H0V1.2H12.8C24.7,1.2,29.5,4.5,29.5,12.4Zm-9.1,0c0-2.8-1.9-3.8-7.7-3.8H9v7.6h3.7C18.5,16.2,20.4,15.2,20.4,12.4Z"/><path class="cls-1" d="M55.1,35.3,47.5,23.6H44.3V35.3H35.2V1.3H48c11.9,0,16.7,3.2,16.7,11.1,0,5.5-2.3,8.7-7.7,10.2l8.3,12.7ZM44.2,16.2h3.7c5.7,0,7.7-.9,7.7-3.8s-1.9-3.8-7.7-3.8H44.2Z"/><path class="cls-1" d="M104.5,18.2A17.6,17.6,0,1,1,86.9.6,17.63,17.63,0,0,1,104.5,18.2Zm-8.2,0a9.4,9.4,0,1,0-9.4,9.4A9.45,9.45,0,0,0,96.3,18.2Z"/><path class="cls-1" d="M133.3,24l6.5,5A17.58,17.58,0,1,1,125.9.7a17.38,17.38,0,0,1,13.9,6.9l-6.5,5a9.14,9.14,0,0,0-7.4-3.7,9.4,9.4,0,0,0,0,18.8A9.73,9.73,0,0,0,133.3,24Z"/><path class="cls-1" d="M175,1.2,162.8,21.6V35.2h-9.1V21.6L141.5,1.2h10.6l6.1,10.3,6.1-10.3Z"/><path class="cls-1" d="M210.1,18.2A17.6,17.6,0,1,1,192.5.6,17.63,17.63,0,0,1,210.1,18.2Zm-8.2,0a9.4,9.4,0,1,0-9.4,9.4A9.45,9.45,0,0,0,201.9,18.2Z"/><path class="cls-1" d="M244.1,1.2V36.3L224.8,18.4V35.1h-9.1V0L235,17.9V1.2Z"/><path class="cls-1" d="M1,45.4V57.9H.1V45.4Z"/><path class="cls-1" d="M24.6,45.4V57.9h-.8L16.5,47.2V57.9h-.9V45.4h.8l7.4,10.7V45.4Z"/><path class="cls-1" d="M46.7,46.3H42.8V57.9h-1V46.3H37.9v-.9h8.8v.9Z"/><path class="cls-1" d="M67.2,57v.9H60V45.4h7.1v.9H61v4.8h5.7V52H61v4.9h6.2Z"/><path class="cls-1" d="M92.7,52.6c0,3-2.3,5.5-6,5.5a6.4,6.4,0,1,1,5.4-9.8l-.8.5a5,5,0,0,0-4.5-2.6,5.5,5.5,0,1,0,.1,11c3,0,4.9-1.9,5.1-4.2H86.7v-.9h6.2v.5Z"/><path class="cls-1" d="M111.3,52.8h-3.9v5.1h-.9V45.4h4.9a3.76,3.76,0,0,1,3.7,3.7,3.66,3.66,0,0,1-2.7,3.5l3.1,5.2h-1.1Zm-3.9-.9h4a2.71,2.71,0,0,0,2.7-2.8,2.78,2.78,0,0,0-2.7-2.8h-4Z"/><path class="cls-1" d="M135.9,54.7h-6.2l-1.2,3.2h-1l4.8-12.5h1l4.8,12.5h-1Zm-.3-.9-2.8-7.2L130,53.8Z"/><path class="cls-1" d="M158.1,46.3h-3.9V57.9h-1V46.3h-3.9v-.9h8.8v.9Z"/><path class="cls-1" d="M172.4,45.4V57.9h-.9V45.4Z"/><path class="cls-1" d="M186.1,51.7a6.4,6.4,0,1,1,6.4,6.4A6.44,6.44,0,0,1,186.1,51.7Zm12,0a5.42,5.42,0,0,0-5.5-5.5,5.48,5.48,0,0,0-5.5,5.5,5.42,5.42,0,0,0,5.5,5.5A5.48,5.48,0,0,0,198.1,51.7Z"/><path class="cls-1" d="M221.9,45.4V57.9h-.8l-7.3-10.7V57.9h-.9V45.4h.8l7.4,10.7V45.4Z"/><path class="cls-1" d="M235.5,55.2l.8-.5a3.49,3.49,0,0,0,3.7,2.5c2.1,0,3.1-1.1,3.1-2.5s-1.3-2.1-3.2-2.7c-2.1-.7-4-1.3-4-3.4s1.7-3.3,3.8-3.3a4.27,4.27,0,0,1,4,2.6l-.8.4a3.35,3.35,0,0,0-3.2-2.2c-1.7,0-2.8,1-2.8,2.4s1.3,2,3,2.5c2.2.7,4.1,1.4,4.1,3.6s-1.6,3.4-4.1,3.4A4.17,4.17,0,0,1,235.5,55.2Z"/></g></g></svg>